# Blender v2.79 (sub 0) OBJ File: 'sponza.blend'
# www.blender.org
mtllib sponza_floor.mtl
o mesh_19_meshId19_name
v -6.499344 0.800946 3.385937
v -6.499344 0.800945 -2.935756
v -0.410376 0.800945 -2.935756
v 1.583520 0.800945 -2.935750
v 7.680733 0.800945 -2.935750
v 0.591614 0.800946 3.388404
v 7.680733 0.800946 3.390871
v -6.499499 2.971730 1.612077
v -4.411737 2.971735 3.396682
v -6.499499 2.971735 3.396682
v -4.411737 2.971731 -1.151961
v -4.411737 2.971730 1.612077
v -6.499499 2.971731 -1.151961
v 5.612226 2.971735 3.396682
v 5.612226 2.971730 1.612077
v 7.699946 2.971730 1.612077
v 7.699946 2.971735 3.396682
v 7.699946 2.971731 -1.151961
v 5.612226 2.971731 -1.151961
v 5.612226 2.971731 -2.936560
v 7.699946 2.971731 -2.936560
v -4.411737 2.971731 -2.936560
v -6.499499 2.971731 -2.936560
vt 0.446302 0.428836
vt 0.446302 0.000133
vt 0.891390 0.000134
vt 0.446302 0.569220
vt 0.446303 0.998503
vt 0.891564 0.499383
vt 0.891738 0.998503
vt 0.000133 0.999867
vt 0.000133 0.852875
vt 0.125781 0.999867
vt 0.125781 0.852875
vt 0.320388 0.852875
vt 0.320388 0.999867
vt 0.000134 0.147123
vt 0.125781 0.147123
vt 0.125781 0.000134
vt 0.000134 0.000133
vt 0.320388 0.147123
vt 0.320388 0.000134
vt 0.446035 0.000133
vt 0.446035 0.147122
vt 0.446035 0.852875
vt 0.446035 0.999867
vn 0.0000 1.0000 -0.0000
usemtl m19floor
s off
f 3/1/1 2/2/1 1/3/1
f 4/4/1 3/1/1 1/3/1
f 5/5/1 4/4/1 1/3/1
f 6/6/1 5/5/1 1/3/1
f 7/7/1 5/5/1 6/6/1
f 10/8/1 9/9/1 8/10/1
f 12/11/1 11/12/1 8/10/1
f 9/9/1 12/11/1 8/10/1
f 11/12/1 13/13/1 8/10/1
f 9/9/1 14/14/1 12/11/1
f 14/14/1 15/15/1 12/11/1
f 15/15/1 14/14/1 16/16/1
f 14/14/1 17/17/1 16/16/1
f 19/18/1 15/15/1 18/19/1
f 15/15/1 16/16/1 18/19/1
f 21/20/1 20/21/1 18/19/1
f 20/21/1 19/18/1 18/19/1
f 20/21/1 22/22/1 19/18/1
f 22/22/1 11/12/1 19/18/1
f 11/12/1 22/22/1 13/13/1
f 22/22/1 23/23/1 13/13/1
