# Blender v2.79 (sub 0) OBJ File: 'cube.blend'
# www.blender.org
mtllib cube.mtl
o Cube
v 1.081507 -0.390011 -0.968060
v 1.081507 -0.390011 1.031940
v -0.923569 -0.423421 1.042369
v -0.923568 -0.423421 -0.957632
v 1.081508 1.609989 -0.968059
v 1.081507 1.609989 1.031941
v -0.923569 1.576579 1.042368
v -0.923569 1.576579 -0.957631
vt 0.666667 0.000000
vt 1.000000 -0.000000
vt 1.000000 0.500000
vt 0.666667 0.500000
vt 0.333367 0.500002
vt 0.333333 0.999949
vt -0.000090 1.000132
vt -0.000094 0.500256
vt 0.666607 1.000130
vt 0.333446 1.000125
vt 0.333599 0.501025
vt 0.666782 0.500898
vt 0.000000 0.500000
vt 0.000000 0.000000
vt 0.333333 0.000000
vt 0.333333 0.500000
vt 0.666667 0.500000
vt 0.333333 0.500000
vt 0.333333 0.000000
vt 0.666667 -0.000000
vt 0.666667 0.500000
vt 1.000000 0.500000
vt 1.000000 1.000000
vt 0.666667 1.000000
vn 0.0167 -0.9999 -0.0000
vn -0.0167 0.9999 -0.0000
vn 1.0000 0.0000 0.0000
vn 0.0052 -0.0000 1.0000
vn -1.0000 -0.0000 -0.0000
vn -0.0052 0.0000 -1.0000
usemtl Material
s off
f 1/1/1 2/2/1 3/3/1 4/4/1
f 5/5/2 8/6/2 7/7/2 6/8/2
f 1/9/3 5/10/3 6/11/3 2/12/3
f 2/13/4 6/14/4 7/15/4 3/16/4
f 3/17/5 7/18/5 8/19/5 4/20/5
f 5/21/6 1/22/6 4/23/6 8/24/6
